<svg width="49" height="34" viewBox="0 0 49 34" fill="none" xmlns="http://www.w3.org/2000/svg">
<path d="M27.7868 13.8221C27.7914 13.8598 27.7886 13.8967 27.7787 13.9305C27.7689 13.9644 27.752 13.9946 27.7292 14.0194C27.7064 14.0442 27.6781 14.0632 27.6459 14.0752C27.6136 14.0872 27.5781 14.0919 27.5413 14.0893C27.204 14.0647 27.0087 14.0638 27.0035 14.064C26.9301 14.0637 26.8542 14.0332 26.7923 13.9791C26.7305 13.925 26.6877 13.8518 26.6735 13.7755C26.6592 13.6992 26.6746 13.626 26.7163 13.572C26.758 13.5181 26.8225 13.4877 26.8958 13.4875C26.8958 13.4875 27.1056 13.4875 27.4723 13.5141C27.5091 13.5168 27.5464 13.5268 27.5821 13.5437C27.6179 13.5606 27.6513 13.5841 27.6805 13.6127C27.7097 13.6413 27.7341 13.6745 27.7524 13.7104C27.7706 13.7464 27.7823 13.7843 27.7868 13.8221ZM39.4043 17.3415C39.415 17.308 39.4186 17.2714 39.4149 17.2337C39.4112 17.196 39.4003 17.158 39.3827 17.1218C39.3652 17.0856 39.3414 17.052 39.3127 17.0229C39.284 16.9938 39.2509 16.9697 39.2154 16.952C38.8312 16.7592 38.4332 16.6148 38.0317 16.5224C37.9572 16.5061 37.885 16.5199 37.831 16.5608C37.7769 16.6016 37.7454 16.6663 37.7432 16.7405C37.7411 16.8148 37.7685 16.8927 37.8195 16.9572C37.8705 17.0217 37.9409 17.0676 38.0154 17.0848C38.3674 17.1659 38.7163 17.2929 39.053 17.4622C39.1247 17.4978 39.2019 17.505 39.2678 17.4824C39.3337 17.4597 39.3828 17.4091 39.4043 17.3415ZM33.5325 19.2718C33.7131 18.9888 33.9126 18.7206 34.13 18.4688C34.1521 18.4434 34.1682 18.4127 34.1773 18.3784C34.1864 18.3442 34.1883 18.3071 34.183 18.2693C34.1776 18.2315 34.1651 18.1937 34.1461 18.1581C34.1271 18.1225 34.1021 18.0897 34.0724 18.0617C34.0427 18.0337 34.0089 18.011 33.973 17.9948C33.937 17.9787 33.8997 17.9694 33.863 17.9676C33.8264 17.9658 33.7911 17.9714 33.7593 17.9842C33.7274 17.997 33.6997 18.0167 33.6775 18.0421C33.4466 18.3096 33.2346 18.5943 33.0427 18.8949C33.0243 18.9235 33.0124 18.9567 33.0077 18.9927C33.003 19.0286 33.0056 19.0665 33.0153 19.1043C33.0251 19.142 33.0417 19.1789 33.0644 19.2127C33.0871 19.2465 33.1153 19.2767 33.1475 19.3014C33.1796 19.3262 33.2151 19.345 33.2519 19.3569C33.2886 19.3688 33.3259 19.3735 33.3617 19.3708C33.3974 19.368 33.4309 19.3579 33.4602 19.3409C33.4896 19.3239 33.5141 19.3004 33.5325 19.2718ZM32.7436 20.7836C32.7571 20.7517 32.7637 20.7161 32.763 20.6788C32.7623 20.6416 32.7543 20.6034 32.7395 20.5665C32.7247 20.5295 32.7033 20.4946 32.6766 20.4636C32.65 20.4326 32.6185 20.4062 32.584 20.3859C32.5495 20.3656 32.5127 20.3518 32.4757 20.3452C32.4386 20.3386 32.4021 20.3395 32.3682 20.3477C32.3342 20.3559 32.3035 20.3713 32.2778 20.393C32.2521 20.4147 32.232 20.4423 32.2184 20.4743C32.0819 20.7963 31.9533 21.1365 31.8358 21.4851C31.8245 21.5183 31.8204 21.5548 31.8236 21.5924C31.8267 21.63 31.8372 21.6681 31.8542 21.7044C31.8713 21.7408 31.8947 21.7746 31.923 21.8041C31.9514 21.8336 31.9842 21.8581 32.0195 21.8762C32.0549 21.8944 32.092 21.9058 32.129 21.9098C32.1659 21.9139 32.2018 21.9104 32.2347 21.8998C32.2676 21.8891 32.2968 21.8713 32.3207 21.8476C32.3445 21.8238 32.3625 21.7944 32.3737 21.7612C32.4873 21.4237 32.6118 21.095 32.7436 20.7836ZM32.3257 24.5173C32.2007 24.1653 32.1238 23.8062 32.0976 23.4513C32.092 23.3754 32.0569 23.2991 32.0002 23.239C31.9435 23.179 31.8697 23.1402 31.7951 23.1313C31.7204 23.1223 31.6511 23.1438 31.6023 23.1911C31.5535 23.2384 31.5293 23.3077 31.5349 23.3836C31.5652 23.7938 31.6541 24.2089 31.7986 24.6159C31.8118 24.6531 31.8317 24.6888 31.8572 24.7208C31.8826 24.7527 31.9132 24.7804 31.947 24.8022C31.9808 24.824 32.0173 24.8395 32.0543 24.8477C32.0913 24.856 32.1282 24.857 32.1628 24.8505C32.1974 24.844 32.2291 24.8303 32.256 24.81C32.2829 24.7898 32.3045 24.7634 32.3197 24.7325C32.3348 24.7016 32.3431 24.6666 32.3441 24.6297C32.3452 24.5928 32.3389 24.5546 32.3257 24.5173ZM33.5547 15.1798C33.1956 14.9956 32.8188 14.8229 32.4351 14.6667C32.362 14.6372 32.2859 14.6368 32.2234 14.6656C32.161 14.6944 32.1173 14.75 32.1019 14.8202C32.0866 14.8904 32.1008 14.9696 32.1415 15.0403C32.1821 15.111 32.246 15.1676 32.319 15.1975C32.6846 15.3465 33.043 15.5107 33.3847 15.686C33.456 15.7222 33.5332 15.7304 33.5994 15.7088C33.6656 15.6871 33.7154 15.6373 33.7379 15.5704C33.7604 15.5034 33.7537 15.4247 33.7194 15.3514C33.6851 15.2782 33.6259 15.2165 33.5547 15.1798ZM35.0449 16.9057C34.985 16.9389 34.9454 16.998 34.9346 17.0701C34.9239 17.1422 34.9429 17.2214 34.9876 17.2902C34.9982 17.3066 35.0101 17.3222 35.0232 17.3368C35.0717 17.3907 35.1341 17.4291 35.1997 17.4453C35.2653 17.4614 35.33 17.4544 35.3827 17.4254C35.4922 17.3649 35.6037 17.3104 35.7172 17.2619C35.8064 17.3404 35.8937 17.4202 35.9791 17.501C36.039 17.5577 36.1143 17.5917 36.1883 17.5955C36.2624 17.5993 36.3292 17.5727 36.374 17.5214C36.4188 17.4701 36.438 17.3985 36.4274 17.3221C36.4167 17.2458 36.377 17.1711 36.3171 17.1144C36.3038 17.1018 36.2906 17.0892 36.2769 17.0764L36.2988 17.0715C36.367 17.0549 36.4206 17.0097 36.4481 16.9458C36.4755 16.8818 36.4745 16.8042 36.4453 16.7299C36.4161 16.6556 36.361 16.5905 36.2921 16.5489C36.2232 16.5072 36.146 16.4924 36.0773 16.5076C35.963 16.5342 35.8492 16.5659 35.7372 16.6031C35.6059 16.4953 35.4722 16.3903 35.3361 16.2883C35.2706 16.2392 35.1935 16.2155 35.1216 16.2222C35.0498 16.2289 34.9891 16.2656 34.9529 16.3241C34.9167 16.3826 34.908 16.4582 34.9287 16.5343C34.9493 16.6104 34.9976 16.6807 35.063 16.7299C35.1064 16.7624 35.1495 16.7951 35.1922 16.8282C35.1427 16.8529 35.0937 16.8789 35.0449 16.9057ZM30.5325 14.0332C30.1561 13.9331 29.7693 13.845 29.383 13.7707C29.3459 13.7635 29.3093 13.7637 29.2751 13.7714C29.2409 13.779 29.2099 13.7938 29.1837 13.815C29.1576 13.8362 29.1369 13.8634 29.1229 13.895C29.1088 13.9266 29.1016 13.962 29.1017 13.9991C29.1018 14.0363 29.1092 14.0745 29.1235 14.1116C29.1378 14.1486 29.1586 14.1838 29.1849 14.2152C29.2112 14.2465 29.2423 14.2733 29.2766 14.2942C29.3109 14.315 29.3476 14.3294 29.3846 14.3365C29.7578 14.4085 30.1308 14.4937 30.4935 14.5897C30.5306 14.5997 30.5679 14.6024 30.6032 14.5976C30.6384 14.5929 30.6711 14.5807 30.6992 14.5618C30.7273 14.5429 30.7503 14.5177 30.7669 14.4876C30.7835 14.4575 30.7934 14.4232 30.796 14.3865C30.7985 14.3498 30.7937 14.3116 30.7819 14.2739C30.77 14.2363 30.7513 14.2 30.7268 14.1672C30.7023 14.1344 30.6726 14.1056 30.6392 14.0826C30.6059 14.0596 30.5696 14.0428 30.5325 14.0332ZM36.7964 24.3444C36.7657 24.3176 36.7312 24.2964 36.6949 24.2819C36.6586 24.2674 36.6212 24.2599 36.5848 24.2599C36.5485 24.2599 36.5139 24.2674 36.483 24.2818C36.4522 24.2963 36.4256 24.3175 36.405 24.3443C36.2215 24.5807 36.0181 24.7993 35.7965 24.9981L35.7276 25.0588C35.6764 25.1035 35.649 25.171 35.6514 25.2464C35.6538 25.3219 35.6858 25.3991 35.7404 25.4611L35.7425 25.4635C35.7973 25.5247 35.8696 25.5655 35.9439 25.5773C36.0182 25.5891 36.0884 25.5708 36.1392 25.5264L36.2124 25.4619C36.453 25.2461 36.6737 25.0088 36.8726 24.752C36.8936 24.7254 36.9083 24.6937 36.9158 24.6587C36.9233 24.6237 36.9236 24.5862 36.9165 24.5482C36.9094 24.5103 36.8951 24.4728 36.8745 24.4378C36.8539 24.4027 36.8273 24.371 36.7964 24.3444ZM37.6227 18.8767C37.6056 18.8404 37.5822 18.8065 37.5538 18.7771C37.5254 18.7476 37.4926 18.7232 37.4573 18.7051C37.4219 18.687 37.3847 18.6756 37.3478 18.6716C37.3109 18.6676 37.275 18.671 37.2421 18.6817C37.2092 18.6924 37.18 18.7102 37.1562 18.734C37.1324 18.7578 37.1144 18.7871 37.1032 18.8204C37.0921 18.8536 37.088 18.8901 37.0912 18.9277C37.0945 18.9654 37.1049 19.0034 37.122 19.0397C37.2825 19.3829 37.3971 19.7387 37.4624 20.0961C37.4773 20.172 37.5203 20.2446 37.5821 20.2981C37.6439 20.3516 37.7195 20.3816 37.7925 20.3818C37.8654 20.382 37.9299 20.3522 37.9719 20.299C38.0138 20.2457 38.0299 20.1733 38.0166 20.0974C37.9409 19.6844 37.8083 19.2732 37.6227 18.8767ZM34.7208 26.1041C34.7053 26.0673 34.6834 26.0327 34.6562 26.0021C34.629 25.9716 34.5971 25.9457 34.5623 25.926C34.5275 25.9063 34.4906 25.8932 34.4536 25.8874C34.4165 25.8816 34.3802 25.8832 34.3465 25.8922C34.0579 25.9676 33.734 25.937 33.4249 25.805C33.3888 25.7894 33.3513 25.7807 33.3147 25.7796C33.2781 25.7784 33.243 25.7847 33.2115 25.7982C33.1799 25.8116 33.1526 25.832 33.131 25.858C33.1093 25.884 33.0939 25.9152 33.0855 25.9498C33.0771 25.9844 33.0759 26.0217 33.082 26.0596C33.0881 26.0975 33.1014 26.1352 33.121 26.1706C33.1407 26.206 33.1664 26.2384 33.1966 26.2659C33.2269 26.2934 33.2611 26.3155 33.2972 26.3309C33.7282 26.5152 34.1801 26.5578 34.5823 26.452C34.6503 26.434 34.703 26.3872 34.729 26.322C34.755 26.2567 34.7521 26.1784 34.7208 26.1041ZM44.0069 21.6861C43.7611 21.3291 43.512 20.9848 43.2673 20.6633C43.2173 20.5979 43.1473 20.5508 43.0727 20.5322C42.9981 20.5137 42.925 20.5252 42.8694 20.5643C42.8138 20.6035 42.7803 20.667 42.7761 20.7409C42.772 20.8149 42.7976 20.8932 42.8473 20.9589C43.0849 21.2709 43.3264 21.6051 43.5658 21.9526C43.575 21.9659 43.585 21.9785 43.5958 21.9906C43.6482 22.049 43.7167 22.0889 43.7878 22.1025C43.8588 22.1161 43.9271 22.1023 43.979 22.0638C44.0309 22.0254 44.0626 21.9651 44.0678 21.8951C44.073 21.8251 44.0512 21.7504 44.0069 21.6861ZM41.9321 19.4509C41.9794 19.4044 42.0034 19.3371 41.9989 19.2631C41.9944 19.1892 41.9619 19.1143 41.9082 19.0542L41.9005 19.0458C41.6063 18.735 41.2977 18.4387 40.9763 18.1584C40.9172 18.1072 40.8454 18.0773 40.7752 18.0747C40.7051 18.0721 40.6416 18.0969 40.5977 18.1443C40.5537 18.1916 40.5324 18.258 40.5381 18.3301C40.5438 18.4022 40.5759 18.4748 40.6282 18.5333C40.6389 18.5452 40.6503 18.5565 40.6624 18.5669C40.9655 18.8316 41.2566 19.1112 41.5342 19.4044C41.5911 19.4642 41.665 19.5027 41.7396 19.5115C41.8142 19.5202 41.8835 19.4984 41.9321 19.4509ZM37.2673 23.1875C37.3021 23.2264 37.3444 23.2575 37.3902 23.278C37.4361 23.2984 37.4841 23.3075 37.5298 23.3045C37.5755 23.3014 37.6175 23.2863 37.6518 23.2605C37.6862 23.2347 37.7119 23.1991 37.7265 23.1569C37.8484 22.8089 37.9433 22.4471 38.0104 22.0745C38.023 22.0031 38.0057 21.9237 37.9624 21.8541C37.9192 21.7844 37.8534 21.73 37.7797 21.7029C37.7059 21.6759 37.6301 21.6783 37.5691 21.7097C37.508 21.7411 37.4666 21.7989 37.454 21.8704C37.3917 22.2167 37.3034 22.5529 37.1899 22.8763C37.1731 22.9246 37.1715 22.9796 37.1852 23.0348C37.1989 23.09 37.2275 23.143 37.2673 23.1875ZM46.8678 26.9694L46.5135 24.3767C46.5105 24.3548 46.5022 24.3328 46.4893 24.313C46.4764 24.2932 46.4594 24.2761 46.4398 24.2633C46.4202 24.2505 46.3986 24.2424 46.3771 24.2398C46.3557 24.2372 46.3349 24.2401 46.3169 24.2483L45.7488 24.5066C45.5562 24.1621 45.3511 23.8063 45.1343 23.4445C45.1135 23.4097 45.0868 23.3781 45.0558 23.3517C45.0248 23.3252 44.9901 23.3043 44.9536 23.2902C44.9172 23.2761 44.8797 23.2691 44.8434 23.2696C44.8071 23.27 44.7726 23.278 44.742 23.2929C44.7113 23.3078 44.6851 23.3295 44.6648 23.3566C44.6445 23.3837 44.6305 23.4158 44.6236 23.451C44.6167 23.4861 44.6171 23.5238 44.6247 23.5616C44.6323 23.5995 44.6469 23.6369 44.6679 23.6717C44.882 24.0289 45.0849 24.3809 45.2754 24.7219L44.653 25.0049C44.6354 25.0128 44.6209 25.0255 44.6108 25.0418C44.6006 25.0581 44.5951 25.0776 44.5946 25.0984C44.5942 25.1193 44.5988 25.1409 44.6082 25.1615C44.6176 25.1821 44.6314 25.2009 44.6484 25.2164L46.6666 27.0525C46.687 27.0711 46.7112 27.0841 46.7363 27.0899C46.7613 27.0957 46.7861 27.0941 46.8075 27.0853C46.8289 27.0764 46.846 27.0608 46.8567 27.0402C46.8675 27.0196 46.8713 26.995 46.8678 26.9694Z" fill="black" fill-opacity="0.5"/>
<path d="M3.24525 25.0299C3.19384 25.0671 3.13357 25.0782 3.06445 25.0633C2.99533 25.0484 2.9436 25.0143 2.90927 24.9611L1.32892 22.5117C1.29277 22.4556 1.28166 22.3954 1.29557 22.3309C1.31048 22.2617 1.34734 22.2082 1.40616 22.1703C1.46218 22.1341 1.52335 22.1244 1.58967 22.1411C1.65699 22.1532 1.70872 22.1873 1.74486 22.2433L3.18154 24.4701L4.27554 23.6571C4.33255 23.6164 4.39331 23.6029 4.45783 23.6169C4.52053 23.628 4.57176 23.6643 4.61152 23.726C4.64405 23.7764 4.65516 23.8366 4.64486 23.9068C4.63556 23.9723 4.6066 24.0227 4.55799 24.058L3.24525 25.0299ZM6.08265 23.2052C5.88378 23.3335 5.67741 23.4072 5.46354 23.4262C5.25067 23.4405 5.04881 23.3982 4.85798 23.2992C4.66535 23.1973 4.49945 23.0386 4.3603 22.8229C4.24645 22.6465 4.17724 22.4531 4.15265 22.2429C4.12907 22.028 4.15707 21.8255 4.23667 21.6353C4.31907 21.4433 4.4527 21.2876 4.63756 21.1683C4.80842 21.0581 4.97666 20.9992 5.14228 20.9915C5.30889 20.9792 5.45373 21.0008 5.5768 21.0562C5.69986 21.1117 5.78579 21.1773 5.83458 21.2529C5.85808 21.2893 5.86946 21.3315 5.86874 21.3796C5.86802 21.4277 5.85478 21.4779 5.82903 21.5302L5.1205 22.9037C5.21573 22.9652 5.32773 22.9882 5.45648 22.9725C5.58804 22.9551 5.71544 22.9066 5.83868 22.8271C6.00114 22.7223 6.10093 22.5726 6.13806 22.3781C6.15396 22.3043 6.18572 22.2521 6.23334 22.2214C6.28936 22.1853 6.34732 22.1736 6.40722 22.1866C6.46993 22.1977 6.51845 22.2298 6.55279 22.2831C6.5817 22.3279 6.592 22.3807 6.58369 22.4416C6.56129 22.5791 6.50414 22.7211 6.41225 22.8676C6.32136 23.0096 6.21149 23.1221 6.08265 23.2052ZM5.38611 21.4708C5.31455 21.4337 5.23892 21.421 5.15923 21.4328C5.07773 21.4417 4.99497 21.4733 4.91094 21.5275C4.75129 21.6305 4.65208 21.7719 4.61332 21.9516C4.57736 22.1295 4.60249 22.3037 4.68869 22.4742C4.71019 22.5198 4.73992 22.572 4.77787 22.6309L5.38611 21.4708ZM8.61049 21.6338C8.55447 21.6699 8.49831 21.6843 8.44202 21.677C8.38853 21.6679 8.34552 21.6381 8.313 21.5877L8.27505 21.5289C8.23972 21.7262 8.11982 21.8909 7.91535 22.0228C7.7613 22.1222 7.59826 22.1738 7.42622 22.1777C7.25419 22.1816 7.08888 22.1375 6.93031 22.0454C6.76993 21.9506 6.63281 21.8149 6.51896 21.6384C6.39246 21.4424 6.31249 21.2262 6.27906 20.9899C6.24382 20.7508 6.26477 20.5251 6.34193 20.3127C6.42189 20.0984 6.5613 19.9272 6.76017 19.7989C6.88902 19.7157 7.017 19.6589 7.14413 19.6285C7.26945 19.5952 7.40439 19.5677 7.54896 19.5458L8.67662 21.2936C8.71276 21.3496 8.72478 21.4113 8.71268 21.4786C8.70057 21.5459 8.66651 21.5976 8.61049 21.6338ZM7.69267 21.6131C7.77389 21.5607 7.84148 21.4933 7.89542 21.4109C7.95216 21.3266 7.99038 21.2445 8.01007 21.1643L7.31518 20.0596C7.21227 20.0784 7.11319 20.1185 7.01796 20.18C6.89752 20.2577 6.81548 20.3642 6.77184 20.4994C6.7264 20.6319 6.71822 20.776 6.74732 20.9318C6.77461 21.0847 6.83253 21.2299 6.92108 21.3671C7.03132 21.538 7.15316 21.6438 7.28662 21.6846C7.42007 21.7255 7.55542 21.7016 7.69267 21.6131ZM9.95497 20.7128C9.90735 20.7435 9.86231 20.7567 9.81985 20.7524C9.77738 20.748 9.73098 20.7284 9.68065 20.6934L7.89771 19.4517C7.87304 19.4319 7.85077 19.4066 7.83089 19.3758C7.79836 19.3254 7.78996 19.2693 7.80568 19.2076C7.82239 19.1413 7.85876 19.0901 7.91478 19.0539C8.00441 18.9961 8.09634 19.0002 8.19058 19.0664L9.49415 19.9985L9.17819 18.4113C9.16689 18.3631 9.17082 18.3169 9.18998 18.2728C9.21193 18.2269 9.24392 18.1904 9.28593 18.1633C9.34475 18.1254 9.40502 18.1143 9.46673 18.13C9.53124 18.1439 9.58067 18.1775 9.615 18.2307C9.62946 18.2531 9.64143 18.287 9.65092 18.3325L10.0627 20.4648C10.073 20.5176 10.07 20.5652 10.0536 20.6075C10.0383 20.6452 10.0054 20.6803 9.95497 20.7128ZM11.995 19.3906C11.7961 19.5189 11.5898 19.5926 11.3759 19.6116C11.163 19.6259 10.9612 19.5836 10.7703 19.4846C10.5777 19.3828 10.4118 19.224 10.2727 19.0083C10.1588 18.8319 10.0896 18.6385 10.065 18.4283C10.0414 18.2134 10.0694 18.0109 10.149 17.8207C10.2314 17.6287 10.3651 17.473 10.5499 17.3538C10.7208 17.2435 10.889 17.1846 11.0546 17.1769C11.2213 17.1646 11.3661 17.1862 11.4892 17.2416C11.6122 17.2971 11.6981 17.3627 11.7469 17.4383C11.7704 17.4747 11.7818 17.517 11.7811 17.565C11.7804 17.6131 11.7671 17.6633 11.7414 17.7156L11.0329 19.0891C11.1281 19.1506 11.2401 19.1736 11.3688 19.1579C11.5004 19.1405 11.6278 19.092 11.751 19.0125C11.9135 18.9077 12.0133 18.758 12.0504 18.5635C12.0663 18.4897 12.0981 18.4375 12.1457 18.4068C12.2017 18.3707 12.2597 18.359 12.3196 18.372C12.3823 18.3831 12.4308 18.4152 12.4651 18.4685C12.4941 18.5133 12.5044 18.5661 12.4961 18.627C12.4736 18.7645 12.4165 18.9065 12.3246 19.053C12.2337 19.195 12.1238 19.3075 11.995 19.3906ZM11.2985 17.6562C11.2269 17.6191 11.1513 17.6064 11.0716 17.6182C10.9901 17.6271 10.9073 17.6587 10.8233 17.7129C10.6636 17.8159 10.5644 17.9573 10.5257 18.137C10.4897 18.3149 10.5148 18.4891 10.601 18.6596C10.6226 18.7052 10.6523 18.7575 10.6902 18.8163L11.2985 17.6562ZM16.0204 16.853C15.9644 16.8891 15.9083 16.9035 15.852 16.8962C15.7985 16.8871 15.7555 16.8573 15.7229 16.8069L15.685 16.7481C15.6497 16.9454 15.5298 17.11 15.3253 17.242C15.1712 17.3413 15.0082 17.393 14.8362 17.3969C14.6641 17.4008 14.4988 17.3567 14.3402 17.2646C14.1799 17.1697 14.0428 17.0341 13.9289 16.8576C13.8024 16.6616 13.7224 16.4454 13.689 16.2091C13.6538 15.97 13.6747 15.7443 13.7519 15.5318C13.8318 15.3176 13.9712 15.1463 14.1701 15.018C14.299 14.9349 14.4269 14.8781 14.5541 14.8477C14.6794 14.8144 14.8143 14.7869 14.9589 14.765L16.0866 16.5128C16.1227 16.5688 16.1347 16.6305 16.1226 16.6978C16.1105 16.7651 16.0764 16.8168 16.0204 16.853ZM15.1026 16.8322C15.1838 16.7798 15.2514 16.7124 15.3054 16.63C15.3621 16.5458 15.4003 16.4636 15.42 16.3835L14.7251 15.2788C14.6222 15.2976 14.5231 15.3377 14.4279 15.3992C14.3075 15.4769 14.2254 15.5833 14.1818 15.7186C14.1363 15.8511 14.1282 15.9952 14.1573 16.151C14.1845 16.3039 14.2425 16.449 14.331 16.5863C14.4413 16.7571 14.5631 16.863 14.6966 16.9038C14.83 16.9447 14.9654 16.9208 15.1026 16.8322ZM18.885 14.9453C18.7225 15.0501 18.5585 15.1063 18.3929 15.114C18.2282 15.1171 18.0839 15.0932 17.9598 15.0423C17.8368 14.9869 17.7563 14.9297 17.7183 14.8709C17.6822 14.8149 17.672 14.756 17.6877 14.6943C17.7016 14.6298 17.7352 14.5804 17.7884 14.546C17.836 14.5153 17.8834 14.5026 17.9304 14.5079C17.9803 14.5115 18.0258 14.5297 18.0669 14.5627C18.1537 14.6296 18.2484 14.6657 18.351 14.671C18.4535 14.6762 18.5566 14.6454 18.6603 14.5785C18.7695 14.5081 18.8378 14.4263 18.865 14.3334C18.8923 14.2404 18.8843 14.1603 18.8409 14.0931C18.7994 14.0286 18.7402 13.9954 18.6635 13.9933C18.5878 13.9866 18.4561 14.0101 18.2686 14.0637C17.9937 14.1418 17.7751 14.1658 17.6129 14.1356C17.4488 14.1027 17.3161 14.0077 17.2149 13.8509C17.1083 13.6856 17.0874 13.5087 17.1522 13.3202C17.2152 13.1288 17.3643 12.9572 17.5996 12.8054C17.818 12.6644 18.0182 12.6027 18.2001 12.6202C18.3848 12.636 18.5286 12.7236 18.6316 12.8833C18.6877 12.9701 18.7128 13.0491 18.7071 13.1202C18.6996 13.1885 18.6623 13.2444 18.595 13.2877C18.5362 13.3257 18.4769 13.3382 18.417 13.3253C18.3571 13.3124 18.3135 13.2849 18.2864 13.2429C18.2774 13.2289 18.2694 13.2103 18.2623 13.187C18.2563 13.1592 18.2496 13.1397 18.2424 13.1285C18.2099 13.0781 18.1585 13.0537 18.0882 13.0554C18.0207 13.0553 17.9365 13.0878 17.8357 13.1529C17.7096 13.2342 17.6275 13.313 17.5894 13.3891C17.5541 13.4635 17.5563 13.5315 17.5961 13.5931C17.6376 13.6575 17.7028 13.6909 17.7915 13.6931C17.8784 13.6926 18.018 13.666 18.2101 13.6134C18.4896 13.5363 18.7022 13.5122 18.8478 13.5412C18.9963 13.5684 19.1211 13.6604 19.2223 13.8172C19.291 13.9237 19.3256 14.0481 19.3263 14.1905C19.3279 14.3283 19.2912 14.465 19.2161 14.6007C19.1438 14.7347 19.0334 14.8495 18.885 14.9453ZM18.8251 11.7647C18.7719 11.7991 18.7108 11.8088 18.6416 11.7939C18.5753 11.7772 18.5264 11.7413 18.4948 11.6863L18.3988 11.5281C18.3672 11.4731 18.3584 11.4133 18.3723 11.3488C18.3862 11.2843 18.4198 11.2349 18.473 11.2005C18.5262 11.1662 18.586 11.1574 18.6523 11.1741C18.7214 11.189 18.7709 11.2226 18.8006 11.2748L18.8994 11.4372C18.9327 11.495 18.9425 11.5562 18.9285 11.6207C18.9156 11.6806 18.8812 11.7286 18.8251 11.7647ZM20.2706 14.0513C20.2146 14.0874 20.1529 14.0994 20.0856 14.0873C20.0193 14.0706 19.9681 14.0342 19.9319 13.9782L18.8741 12.2925C18.8379 12.2365 18.8268 12.1762 18.8407 12.1117C18.8556 12.0426 18.8911 11.9899 18.9471 11.9538C19.0059 11.9159 19.0685 11.9052 19.1348 11.922C19.1993 11.9359 19.2497 11.9708 19.2858 12.0269L20.3437 13.7126C20.3798 13.7686 20.3904 13.8312 20.3755 13.9003C20.3616 13.9648 20.3267 14.0151 20.2706 14.0513ZM22.2602 13.7672C22.0978 13.8721 21.9199 13.9591 21.7265 14.0283C21.6745 14.046 21.6213 14.0466 21.567 14.0301C21.5155 14.0117 21.4744 13.9787 21.4437 13.9311C21.4075 13.8751 21.3964 13.8148 21.4103 13.7503C21.427 13.684 21.462 13.6337 21.5152 13.5993C21.5488 13.5777 21.5982 13.5557 21.6632 13.5336C21.6762 13.5292 21.7149 13.5122 21.7791 13.4826C21.8452 13.4559 21.9174 13.4172 21.9958 13.3666C22.2843 13.1805 22.3467 12.9359 22.183 12.633L22.1263 12.5267C22.1203 12.6219 22.0889 12.7116 22.0321 12.7958C21.9736 12.8772 21.8995 12.9468 21.8099 13.0046C21.6614 13.1004 21.4979 13.1543 21.3192 13.1665C21.1416 13.174 20.9684 13.133 20.7996 13.0435C20.629 12.9513 20.4823 12.8099 20.3594 12.6195C20.2311 12.4206 20.1543 12.2063 20.1291 11.9766C20.1067 11.7452 20.1377 11.5288 20.2221 11.3276C20.3093 11.1246 20.4453 10.9634 20.6301 10.8441C20.7338 10.7773 20.8663 10.7275 21.0277 10.6948C20.9995 10.6019 21.0386 10.5211 21.145 10.4524C21.2038 10.4145 21.2623 10.4006 21.3204 10.4107C21.3795 10.4162 21.4311 10.4563 21.4753 10.5309L22.5772 12.331C22.7578 12.6231 22.8152 12.8935 22.7495 13.1422C22.6838 13.3908 22.5207 13.5992 22.2602 13.7672ZM21.5298 12.626C21.6839 12.5266 21.7691 12.3942 21.7854 12.229C21.8 12.0609 21.7323 11.8606 21.5823 11.6282L21.2543 11.1198C21.2006 11.1227 21.1412 11.1352 21.0762 11.1573C21.0139 11.1777 20.9576 11.2041 20.9072 11.2366C20.7923 11.3107 20.7058 11.4102 20.6475 11.5351C20.5902 11.6553 20.5665 11.7877 20.5764 11.932C20.589 12.0746 20.6378 12.2117 20.7227 12.3434C20.833 12.5142 20.9635 12.6244 21.1144 12.6738C21.2681 12.7214 21.4066 12.7055 21.5298 12.626ZM23.5898 11.9098C23.5366 11.9441 23.4763 11.9552 23.409 11.9431C23.3445 11.9292 23.296 11.897 23.2635 11.8466L22.1629 10.1408C22.1268 10.0848 22.1171 10.0236 22.1338 9.95732C22.1505 9.891 22.1869 9.83976 22.2429 9.80362C22.2961 9.76928 22.3536 9.75998 22.4153 9.7757C22.4798 9.78961 22.5301 9.82458 22.5663 9.8806L22.7723 10.1999C22.7423 9.98125 22.7595 9.78965 22.8239 9.62511C22.8865 9.45778 22.9892 9.32802 23.1321 9.23586C23.2889 9.13466 23.4371 9.09065 23.5765 9.10384C23.7159 9.11703 23.8608 9.1941 24.0113 9.33505C24.1599 9.4732 24.3291 9.68932 24.5189 9.98342L24.989 10.7214C25.0234 10.7746 25.0359 10.834 25.0266 10.8995C25.0155 10.9622 24.9819 11.0116 24.9259 11.0477C24.8727 11.0821 24.8124 11.0932 24.7451 11.0811C24.6788 11.0644 24.6293 11.0308 24.5968 10.9804L24.1468 10.283C24.0059 10.0645 23.8876 9.90275 23.7921 9.79776C23.6966 9.69277 23.6157 9.63192 23.5494 9.6152C23.4813 9.59569 23.4136 9.60762 23.3464 9.65099C23.2623 9.7052 23.2018 9.79583 23.1648 9.92287C23.1259 10.0471 23.1125 10.1985 23.1247 10.3772C23.1343 10.5336 23.1618 10.6745 23.2071 10.8C23.2523 10.9255 23.3247 11.0653 23.4241 11.2194L23.6518 11.5723C23.6915 11.6339 23.7058 11.6961 23.6947 11.7588C23.6864 11.8197 23.6514 11.87 23.5898 11.9098ZM27.041 9.74262C26.9849 9.77876 26.9288 9.79317 26.8725 9.78585C26.819 9.77673 26.776 9.74696 26.7435 9.69654L26.7055 9.63772C26.6702 9.83506 26.5503 9.99969 26.3458 10.1316C26.1918 10.231 26.0287 10.2826 25.8567 10.2865C25.6847 10.2904 25.5194 10.2463 25.3608 10.1543C25.2004 10.0594 25.0633 9.92373 24.9494 9.74727C24.8229 9.5512 24.743 9.33503 24.7095 9.09875C24.6743 8.85968 24.6953 8.63393 24.7724 8.4215C24.8524 8.20727 24.9918 8.036 25.1907 7.90769C25.3195 7.82456 25.4475 7.76777 25.5746 7.73732C25.6999 7.70407 25.8349 7.67651 25.9794 7.65464L27.1071 9.40243C27.1432 9.45845 27.1553 9.52012 27.1432 9.58743C27.131 9.65474 27.097 9.70647 27.041 9.74262ZM26.1231 9.7219C26.2044 9.66949 26.272 9.60209 26.3259 9.51968C26.3826 9.43547 26.4209 9.35329 26.4406 9.27315L25.7457 8.16844C25.6427 8.18724 25.5437 8.22736 25.4484 8.2888C25.328 8.36651 25.246 8.47299 25.2023 8.60825C25.1569 8.74071 25.1487 8.88483 25.1778 9.0406C25.2051 9.19357 25.263 9.33868 25.3516 9.47593C25.4618 9.64678 25.5836 9.75263 25.7171 9.79347C25.8505 9.83431 25.9859 9.81045 26.1231 9.7219ZM28.1712 8.95986C28.118 8.9942 28.0577 9.00531 27.9904 8.99321C27.9259 8.97929 27.8764 8.94573 27.8421 8.89251L26.8744 7.3926L26.5425 7.60675C26.4864 7.64289 26.4262 7.65401 26.3617 7.64009C26.2953 7.62338 26.245 7.58841 26.2107 7.53519C26.1709 7.47357 26.1603 7.411 26.1788 7.34748C26.1955 7.28116 26.2319 7.22993 26.2879 7.19379L26.6114 6.98506L26.3214 6.53551C26.2871 6.48229 26.2759 6.42203 26.288 6.35471C26.3002 6.2874 26.3342 6.23567 26.3902 6.19953C26.4491 6.16158 26.5102 6.15186 26.5737 6.17038C26.6383 6.1843 26.6886 6.21926 26.7247 6.27528L27.0148 6.72483L27.3719 6.49442C27.4279 6.45828 27.4882 6.44716 27.5527 6.46108C27.6172 6.47499 27.6684 6.51136 27.7064 6.57018C27.7407 6.6234 27.7518 6.68366 27.7397 6.75098C27.7258 6.81549 27.6909 6.86582 27.6348 6.90196L27.2777 7.13237L28.2454 8.63228C28.2798 8.6855 28.29 8.74437 28.2761 8.80888C28.2622 8.87339 28.2272 8.92372 28.1712 8.95986ZM29.7653 7.94327C29.614 8.04086 29.4728 8.08636 29.3416 8.07976C29.2086 8.07037 29.0637 7.9933 28.9068 7.84856C28.7499 7.70381 28.5667 7.46898 28.3571 7.14407C28.2866 7.03484 28.2131 6.91168 28.1366 6.77462C28.06 6.63755 27.9998 6.51969 27.956 6.42102C27.922 6.34377 27.9087 6.277 27.916 6.2207C27.9233 6.16441 27.9564 6.11729 28.0152 6.07934C28.0713 6.0432 28.1297 6.02928 28.1906 6.0376C28.2515 6.04591 28.3027 6.08227 28.3443 6.1467L28.4118 6.26976C28.5374 6.52591 28.6707 6.76322 28.8116 6.9817C28.996 7.26739 29.1454 7.4467 29.2599 7.51961C29.3753 7.58792 29.4765 7.59406 29.5633 7.53804C29.6641 7.47298 29.7506 7.37951 29.8227 7.25762C29.893 7.13293 29.9343 7.03092 29.9466 6.95159C29.9525 6.92394 29.9384 6.8835 29.904 6.83029L29.1399 5.62746C29.1037 5.57144 29.0935 5.51257 29.1092 5.45086C29.1278 5.38734 29.1622 5.33932 29.2126 5.30679C29.2659 5.27245 29.3238 5.26084 29.3865 5.27195C29.452 5.28126 29.5029 5.31392 29.539 5.36994L30.6396 7.07572C30.6739 7.12894 30.6836 7.19011 30.6687 7.25923C30.6548 7.32374 30.6212 7.37317 30.568 7.4075C30.512 7.44364 30.4507 7.45937 30.3842 7.45467C30.3187 7.44536 30.2688 7.4141 30.2345 7.36089L30.2046 7.31467C30.147 7.45897 30.0864 7.58334 30.0229 7.68779C29.9604 7.78764 29.8745 7.8728 29.7653 7.94327ZM31.562 6.7662C31.5088 6.80054 31.4485 6.81165 31.3812 6.79955C31.3139 6.78744 31.2639 6.75618 31.2314 6.70576L30.1336 5.00419C30.0974 4.94817 30.0863 4.8879 30.1002 4.82339C30.1169 4.75707 30.1533 4.70583 30.2093 4.66969C30.2653 4.63355 30.3256 4.62243 30.3901 4.63635C30.4574 4.64845 30.5092 4.68252 30.5453 4.73853L30.6266 4.86458C30.6193 4.55195 30.7347 4.31883 30.9728 4.16523C31.1156 4.07306 31.2431 4.04631 31.3554 4.08498C31.4704 4.12185 31.5631 4.1949 31.6336 4.30413L31.7149 4.43018C31.7511 4.48619 31.7622 4.54646 31.7483 4.61097C31.7354 4.67088 31.7009 4.7189 31.6449 4.75505C31.5777 4.79842 31.5146 4.81134 31.4557 4.79381C31.3996 4.77448 31.3534 4.7368 31.3173 4.68078L31.2821 4.62616C31.2531 4.58135 31.2079 4.57882 31.1463 4.61858C31.0958 4.65111 31.0533 4.71426 31.0186 4.80805C30.9867 4.90003 30.9678 4.98759 30.9619 5.07071C30.9501 5.18149 30.9579 5.27961 30.9853 5.36509C31.0154 5.44876 31.0631 5.54101 31.1281 5.64184L31.6389 6.44282C31.6715 6.49324 31.6794 6.55161 31.6627 6.61793C31.646 6.68425 31.6124 6.73368 31.562 6.7662ZM33.8309 5.30229C33.6321 5.43059 33.4257 5.50424 33.2118 5.52322C32.999 5.53759 32.7971 5.49526 32.6063 5.39624C32.4136 5.29441 32.2477 5.13566 32.1086 4.91999C31.9947 4.74353 31.9255 4.55017 31.9009 4.33992C31.8774 4.12505 31.9054 3.92252 31.985 3.73233C32.0674 3.54032 32.201 3.38468 32.3859 3.26541C32.5567 3.15517 32.725 3.09621 32.8906 3.08853C33.0572 3.07624 33.202 3.09783 33.3251 3.15331C33.4482 3.20878 33.5341 3.27433 33.5829 3.34996C33.6064 3.38637 33.6178 3.42861 33.617 3.47668C33.6163 3.52475 33.6031 3.57494 33.5773 3.62726L32.8688 5.00075C32.964 5.06228 33.076 5.08523 33.2048 5.06959C33.3363 5.05215 33.4637 5.00367 33.587 4.92416C33.7494 4.81934 33.8492 4.66967 33.8864 4.47514C33.9023 4.40141 33.934 4.34918 33.9816 4.31846C34.0376 4.28232 34.0956 4.2707 34.1555 4.28362C34.2182 4.29474 34.2667 4.3269 34.3011 4.38012C34.33 4.42493 34.3403 4.47779 34.332 4.53869C34.3096 4.67612 34.2524 4.81811 34.1605 4.96467C34.0697 5.10662 33.9598 5.21916 33.8309 5.30229ZM33.1344 3.5679C33.0628 3.53077 32.9872 3.51807 32.9075 3.52982C32.826 3.53877 32.7433 3.57035 32.6592 3.62456C32.4996 3.72757 32.4004 3.86893 32.3616 4.04865C32.3257 4.22656 32.3508 4.40076 32.437 4.57126C32.4585 4.61689 32.4882 4.66911 32.5262 4.72793L33.1344 3.5679Z" fill="black" fill-opacity="0.5"/>
</svg>
